<?xml version="1.0" standalone="no"?>
<!DOCTYPE svg PUBLIC "-//W3C//DTD SVG 20010904//EN"
 "http://www.w3.org/TR/2001/REC-SVG-20010904/DTD/svg10.dtd">
<svg version="1.0" xmlns="http://www.w3.org/2000/svg"
 width="512.000000pt" height="512.000000pt" viewBox="0 0 512.000000 512.000000"
 preserveAspectRatio="xMidYMid meet">

<g transform="translate(0.000000,512.000000) scale(0.100000,-0.100000)"
fill="#000000" stroke="none">
<path d="M383 5106 c-181 -44 -334 -202 -372 -384 -15 -73 -15 -1331 0 -1404
39 -187 200 -348 387 -387 36 -7 279 -11 747 -11 l694 0 15 -52 c24 -83 306
-1139 306 -1144 0 -3 -27 14 -61 37 -124 84 -213 104 -324 74 -108 -29 -183
-94 -232 -202 -22 -47 -27 -72 -26 -133 0 -42 8 -94 16 -117 52 -139 330 -463
547 -636 176 -140 434 -292 615 -362 l71 -26 39 -152 c42 -159 58 -190 110
-203 19 -5 229 48 713 177 602 161 690 187 715 210 17 17 27 38 27 56 0 15
-20 103 -44 194 l-45 167 29 73 c15 41 36 110 45 153 19 92 21 276 4 357 -28
138 -254 959 -275 1000 -36 72 -113 135 -196 160 -89 27 -159 21 -243 -22 -33
-16 -61 -26 -63 -20 -10 31 -68 102 -105 128 -65 47 -135 66 -220 61 -73 -5
-158 -38 -186 -72 -12 -14 -17 -13 -49 16 -66 57 -137 83 -228 83 -71 0 -89
-4 -141 -31 l-61 -31 -31 117 c-17 65 -31 123 -31 129 0 8 159 11 591 11 l591
0 29 29 c38 39 40 97 5 138 l-24 28 -625 3 -624 2 -24 51 c-72 154 -255 228
-414 168 -76 -28 -167 -116 -186 -178 l-12 -42 -706 3 c-694 3 -707 3 -752 24
-66 31 -114 78 -146 142 l-28 57 0 675 0 675 28 57 c32 64 80 111 146 142 l46
21 2135 0 2135 0 46 -21 c66 -31 114 -78 146 -142 l28 -57 0 -675 0 -675 -28
-57 c-51 -105 -134 -155 -275 -168 -76 -7 -89 -11 -109 -34 -34 -40 -32 -99 6
-137 27 -26 36 -29 95 -29 247 0 456 165 505 398 15 73 15 1331 0 1404 -29
137 -140 284 -259 341 -126 61 25 57 -2295 56 -1659 -1 -2131 -3 -2172 -13z
m1847 -1973 c17 -14 36 -36 40 -49 5 -12 97 -352 205 -756 108 -403 203 -752
211 -775 24 -67 81 -91 143 -59 27 14 51 53 51 82 0 8 -47 192 -105 407 -58
216 -105 406 -105 422 0 63 65 125 131 125 32 0 86 -29 103 -55 8 -12 63 -202
121 -421 97 -364 109 -401 136 -426 41 -39 90 -38 130 1 20 21 29 39 29 63 0
18 -39 179 -86 358 -84 314 -86 326 -73 364 18 53 67 86 126 86 35 0 50 -6 78
-32 33 -32 39 -47 125 -368 77 -287 93 -338 115 -357 54 -47 143 -19 160 50 4
16 -12 97 -45 219 -56 209 -61 258 -32 297 27 38 86 64 126 57 42 -8 84 -40
98 -75 5 -14 64 -226 130 -471 114 -421 120 -451 125 -563 7 -143 -5 -210 -58
-335 l-40 -93 35 -132 c19 -73 36 -140 38 -151 3 -17 -57 -35 -562 -171 -311
-83 -567 -150 -569 -149 -2 2 -18 58 -36 124 -18 66 -40 131 -48 143 -9 14
-51 37 -113 61 -379 148 -709 389 -953 696 -119 149 -145 194 -145 251 0 84
62 144 147 144 50 0 58 -4 232 -124 98 -68 191 -129 205 -134 51 -19 112 14
126 69 5 18 -55 257 -201 802 -204 761 -208 777 -194 816 29 83 134 114 199
59z"/>
<path d="M647 4509 c-128 -30 -216 -127 -225 -249 -6 -79 12 -134 61 -187 44
-47 59 -56 242 -129 119 -48 165 -83 165 -124 0 -50 -72 -100 -143 -100 -49 0
-115 22 -171 58 -28 18 -60 32 -72 32 -57 0 -104 -47 -104 -104 0 -36 58 -97
122 -129 167 -84 353 -71 470 32 53 46 98 141 98 206 0 63 -14 106 -52 162
-41 60 -100 97 -255 159 -75 30 -142 59 -150 65 -22 19 -15 63 13 90 22 20 35
24 92 24 59 0 76 -5 135 -38 80 -44 114 -46 156 -11 26 21 31 33 31 69 0 55
-22 83 -98 123 -104 56 -218 74 -315 51z"/>
<path d="M1194 4510 c-54 -22 -54 -19 -54 -492 l0 -437 23 -26 c14 -17 36 -28
63 -32 36 -5 46 -1 75 25 l34 30 0 442 0 442 -33 29 c-33 30 -67 36 -108 19z"/>
<path d="M1760 4504 c-164 -43 -287 -156 -350 -319 -32 -83 -33 -242 -2 -327
78 -216 289 -354 510 -335 221 18 374 181 402 426 10 87 -2 129 -43 156 -22
14 -50 16 -182 13 l-157 -3 -24 -28 c-33 -38 -33 -96 0 -134 23 -26 31 -28
110 -32 56 -2 86 -7 86 -15 -1 -28 -41 -94 -78 -128 -125 -113 -347 -50 -426
121 -32 71 -29 179 7 253 53 107 144 162 267 163 64 0 85 -5 147 -34 80 -37
108 -37 149 4 31 31 33 91 3 128 -25 32 -125 81 -197 96 -71 15 -155 13 -222
-5z"/>
<path d="M2425 4487 l-35 -35 0 -426 c0 -308 3 -432 12 -451 13 -29 55 -55 88
-55 29 0 76 26 86 47 5 10 11 126 14 257 l5 239 149 -239 c82 -131 159 -249
171 -262 45 -48 130 -37 165 20 19 32 20 51 20 452 l0 418 -34 34 c-22 22 -44
34 -60 34 -34 0 -81 -24 -92 -47 -5 -10 -11 -129 -14 -265 l-5 -248 -160 256
c-88 140 -169 264 -181 275 -12 11 -37 22 -57 26 -32 5 -41 1 -72 -30z"/>
<path d="M3414 4486 l-35 -35 3 -348 c3 -332 4 -350 24 -394 29 -63 94 -125
163 -158 47 -22 70 -26 141 -26 72 0 93 4 140 27 77 38 121 77 155 139 l30 54
3 344 c3 373 1 391 -49 416 -45 24 -77 19 -115 -19 l-34 -34 0 -328 c-1 -245
-4 -333 -13 -345 -22 -29 -81 -59 -115 -59 -41 0 -84 22 -111 56 -20 26 -21
37 -21 345 0 342 -2 359 -51 385 -46 23 -78 17 -115 -20z"/>
<path d="M4155 4487 l-35 -35 0 -426 c0 -457 1 -466 51 -492 52 -27 115 -8
137 41 7 16 12 77 12 159 l0 133 83 5 c72 4 92 9 148 39 116 64 174 169 167
302 -6 123 -74 222 -188 276 -50 23 -69 26 -198 29 l-142 4 -35 -35z m295
-182 c46 -24 70 -62 70 -111 0 -36 -6 -51 -34 -81 -31 -34 -38 -37 -100 -41
l-66 -4 0 126 0 126 50 0 c28 0 64 -7 80 -15z"/>
<path d="M4084 3111 c-60 -26 -73 -113 -25 -162 62 -61 161 -19 161 70 0 71
-72 119 -136 92z"/>
</g>
</svg>
